<svg version="1.1" xmlns="https://www.w3.org/2000/svg" xmlns:xlink="https://www.w3.org/1999/xlink" x="0px" y="0px" viewBox="0 0 287.161 177.26" enable-background="new 0 0 287.161 177.26" xml:space="preserve">
				<g>
					<path fill="#00C0F3" d="M278.592,28.366c4.275-3.465,6.998-8.81,6.335-17.737c6.438,29.294-9.083,41.91-18.11,43.778
						c-4.72,0.976-13.77,1.883-21.079,5.925c-1.518,0.689-3.741,2.507-4.973,3.587c-0.427,0.405-0.838,0.829-1.231,1.273
						c-3.348,3.785-5.394,9.047-4.842,16.473c-2.005-9.118-2.131-16.304-1.006-22.033c1.602-8.16,5.745-13.362,10.629-16.973
						c2.625-1.942,5.463-3.424,8.236-4.658c0.084-0.037,0.166-0.076,0.25-0.112c1.231-0.542,2.583-1.008,4.011-1.436
						c6.28-1.884,14.069-3.043,19.872-6.722C277.314,29.353,278.06,29.01,278.592,28.366z"></path>
				</g>
				<g opacity="0.66">
					<path fill="#00C0F3" d="M274.054,12.23c2.821-2.286,4.617-5.813,4.18-11.704c4.248,19.33-5.993,27.654-11.95,28.887
						c-3.114,0.644-9.086,1.242-13.909,3.909c-1.001,0.455-2.469,1.654-3.282,2.367c-0.282,0.267-0.553,0.547-0.812,0.84
						c-2.209,2.498-3.559,5.97-3.195,10.87c-1.323-6.017-1.406-10.758-0.664-14.539c1.057-5.384,3.791-8.817,7.014-11.2
						c1.732-1.281,3.605-2.259,5.434-3.074c0.055-0.024,0.11-0.05,0.165-0.074c0.812-0.358,1.704-0.665,2.646-0.948
						c4.144-1.243,9.284-2.008,13.113-4.436C273.211,12.88,273.703,12.654,274.054,12.23z"></path>
				</g>
				<path fill="#00C0F3" d="M94.889,87.109c-11.747-0.01-21.241,2.737-27.819,8.502c-6.583-5.799-16.096-8.454-27.573-8.464
					C15.91,87.127,1.394,98.215,1.373,122.56l-0.036,40.702c-0.006,7.033,5.69,12.739,12.723,12.745l7.574,0.007l0.046-52.174
					c0.012-14.255,5.82-20.935,17.424-20.925c10.643,0.009,16.957,5.669,17.695,17.808c0.049,0.81,0.074,1.648,0.073,2.516
					l-0.035,40.071c-0.006,6.548,4.934,11.941,11.292,12.659l8.88,0.008h0.017l0.046-52.174c0.012-14.255,5.82-20.935,17.424-20.925
					c11.353,0.01,17.78,6.449,17.768,20.324l-0.035,40.071c-0.006,7.033,5.69,12.739,12.723,12.745l7.448,0.006l0.047-54.319
					C132.469,97.36,117.468,87.129,94.889,87.109z"></path>
				<g>
					<path fill="#00C0F3" d="M172.316,131.531c0-27.272,13.325-44.456,43.337-44.456c23.909,0,34.617,10.958,38.851,24.905l-9.524,2.535
						c-4.037,1.075-8.258-0.472-10.804-3.784c-3.529-4.59-9.568-8.091-18.027-8.091c-17.058,0-23.66,11.457-23.66,28.89
						c0,17.06,6.227,29.388,24.035,29.388c9.376,0,15.056-3.992,18.224-9.056c2.4-3.836,5.818-5.399,11.809-3.894
						c2.531,0.976,5.691,2.065,9.193,3.237c-4.856,12.578-15.068,25.404-39.103,25.404C185.89,176.61,172.316,157.682,172.316,131.531z"></path>
				</g>
				<path fill="#00C0F3" d="M154.777,87.563h8.111v75.761c0,7.033-5.701,12.734-12.734,12.734h-8.111v-75.761
					C142.043,93.264,147.744,87.563,154.777,87.563z"></path>
				<g>
					<path fill="#00C0F3" d="M35.173,60.901c0-0.234,0.115-0.353,0.35-0.353h3.249c0.235,0,0.35,0.118,0.35,0.352v5.619
						c0,0.703,0.264,1.241,0.792,1.616c0.528,0.375,1.24,0.561,2.135,0.561h0.39c0.465,0,0.821,0.131,1.056,0.392
						c0.235,0.261,0.35,0.702,0.35,1.319c0,0.689-0.109,1.164-0.333,1.425s-0.58,0.392-1.073,0.392c-0.706,0-1.338-0.072-1.889-0.214
						c-0.551-0.142-1.027-0.451-1.429-0.926v0.387c0,1.342-0.207,2.519-0.614,3.532c-0.413,1.013-0.999,1.857-1.762,2.529
						c-0.763,0.666-1.67,1.171-2.727,1.498s-2.227,0.494-3.519,0.494c-1.246,0-2.388-0.166-3.433-0.494s-1.952-0.827-2.727-1.498
						s-1.381-1.51-1.814-2.52c-0.436-1.013-0.652-2.201-0.652-3.565c0-1.269,0.198-2.539,0.6-3.809c0.402-1.27,0.896-2.362,1.481-3.279
						c0.121-0.212,0.293-0.235,0.528-0.072l2.859,1.129c0.115,0.047,0.184,0.112,0.195,0.194c0.011,0.083-0.006,0.171-0.057,0.264
						c-0.373,0.659-0.735,1.429-1.073,2.311c-0.339,0.881-0.511,1.851-0.511,2.91c0,0.917,0.149,1.686,0.442,2.309
						c0.293,0.623,0.672,1.124,1.125,1.5c0.459,0.377,0.97,0.642,1.538,0.791c0.563,0.155,1.114,0.23,1.653,0.23
						c1.343,0,2.428-0.356,3.266-1.073c0.832-0.718,1.251-1.876,1.251-3.474V60.901z M29.811,58.786c-0.235,0-0.35-0.119-0.35-0.357
						v-3.061c0-0.237,0.115-0.356,0.35-0.356h3.387c0.235,0,0.35,0.119,0.35,0.356v3.061c0,0.238-0.115,0.357-0.35,0.357H29.811z"></path>
					<path fill="#00C0F3" d="M50.095,70.406c-0.327,0.689-0.824,1.164-1.487,1.425s-1.559,0.392-2.681,0.392h-3.281
						c-0.468,0-0.821-0.112-1.056-0.339c-0.235-0.225-0.353-0.67-0.353-1.336c0-0.689,0.112-1.168,0.336-1.442
						c0.224-0.273,0.58-0.41,1.073-0.41h2.293c0.425,0,0.746-0.065,0.97-0.192c0.224-0.129,0.387-0.329,0.494-0.598
						c0.106-0.268,0.169-0.62,0.195-1.055c0.023-0.433,0.034-0.967,0.034-1.599v-7.313c0-0.141,0.063-0.234,0.192-0.281
						s0.261-0.07,0.402-0.07h3.008c0.232,0,0.347,0.118,0.347,0.352v8.579c0,0.703,0.264,1.241,0.795,1.616
						c0.528,0.376,1.24,0.563,2.133,0.563h0.6c0.471,0,0.824,0.131,1.059,0.392c0.232,0.261,0.353,0.702,0.353,1.319
						c0,0.689-0.112,1.164-0.336,1.425c-0.224,0.261-0.583,0.392-1.076,0.392c-0.916,0-1.716-0.112-2.4-0.339
						C51.031,71.659,50.491,71.167,50.095,70.406z M44.625,78.996c-0.235,0-0.353-0.121-0.353-0.356v-3.06
						c0-0.241,0.118-0.362,0.353-0.362h2.962c0.235,0,0.353,0.121,0.353,0.362v3.06c0,0.235-0.118,0.356-0.353,0.356H44.625z
						 M49.208,78.996c-0.235,0-0.353-0.121-0.353-0.356v-3.06c0-0.241,0.118-0.362,0.353-0.362h2.962c0.235,0,0.353,0.121,0.353,0.362
						v3.06c0,0.235-0.118,0.356-0.353,0.356H49.208z"></path>
					<path fill="#00C0F3" d="M64.963,72.47c-1.18,0-2.239-0.161-3.18-0.481c-0.941-0.32-1.731-0.85-2.368-1.586
						c-0.235,0.382-0.522,0.69-0.855,0.929c-0.33,0.238-0.675,0.422-1.028,0.553c-0.353,0.131-0.718,0.22-1.094,0.267
						c-0.376,0.047-0.729,0.072-1.059,0.072h-1.234c-0.471,0-0.824-0.136-1.059-0.409c-0.232-0.274-0.353-0.73-0.353-1.372
						c0-0.689,0.112-1.152,0.336-1.389c0.224-0.238,0.583-0.357,1.076-0.357h1.375c0.258,0,0.517-0.052,0.778-0.158
						c0.258-0.105,0.494-0.281,0.703-0.527c0.212-0.247,0.387-0.574,0.531-0.986c0.141-0.409,0.21-0.92,0.21-1.528
						c-0.023-0.188-0.034-0.363-0.034-0.528c0-0.164,0-0.34,0-0.527c0.023-1.36,0.218-2.514,0.583-3.464
						c0.367-0.949,0.873-1.722,1.521-2.321c0.649-0.597,1.409-1.03,2.279-1.302c0.872-0.268,1.828-0.403,2.865-0.403
						c1.039,0,2.003,0.141,2.899,0.423c0.896,0.281,1.668,0.729,2.316,1.339c0.649,0.613,1.154,1.424,1.521,2.434
						c0.365,1.012,0.548,2.234,0.548,3.668c0,1.388-0.178,2.563-0.531,3.528c-0.353,0.964-0.847,1.751-1.484,2.362
						c-0.634,0.611-1.401,1.059-2.296,1.34C67.033,72.329,66.045,72.47,64.963,72.47z M64.955,60.478c-1.122,0-1.952,0.363-2.491,1.089
						c-0.537,0.726-0.807,1.78-0.807,3.162c0,1.498,0.27,2.575,0.807,3.23c0.54,0.656,1.369,0.983,2.491,0.983
						c1.148,0,1.989-0.333,2.526-1c0.54-0.667,0.807-1.738,0.807-3.213C68.287,61.895,67.176,60.478,64.955,60.478z"></path>
					<path fill="#00C0F3" d="M75.907,44.677c-0.164-0.258-0.299-0.558-0.405-0.9c-0.106-0.34-0.158-0.71-0.158-1.111
						c0-0.399,0.063-0.805,0.192-1.217c0.129-0.41,0.347-0.786,0.654-1.128c0.304-0.34,0.692-0.623,1.162-0.847
						c0.471-0.222,1.045-0.334,1.728-0.334c0.657,0,1.246,0.123,1.765,0.37c0.517,0.247,0.927,0.57,1.234,0.97
						c0.069,0.141,0.069,0.247,0,0.317l-0.918,0.881c-0.141,0.118-0.258,0.129-0.353,0.036c-0.235-0.235-0.494-0.429-0.775-0.583
						c-0.281-0.152-0.588-0.228-0.918-0.228c-0.54,0-0.964,0.171-1.269,0.511c-0.304,0.342-0.459,0.771-0.459,1.287
						c0,0.471,0.123,0.875,0.37,1.217c0.247,0.34,0.499,0.594,0.761,0.758h3.562c0.141,0,0.21,0.083,0.21,0.247v1.305
						c0,0.165-0.069,0.248-0.21,0.248h-7.477c-0.144,0-0.212-0.083-0.212-0.248v-1.305c0-0.164,0.069-0.247,0.212-0.247H75.907z
						 M76.332,48.592c0-0.235,0.115-0.353,0.347-0.353h3.252c0.232,0,0.35,0.118,0.35,0.353V66.83c0,0.705,0.135,1.191,0.405,1.462
						c0.27,0.27,0.7,0.403,1.289,0.403h1.234c0.471,0,0.824,0.138,1.059,0.41c0.232,0.274,0.35,0.742,0.35,1.406
						c0,0.736-0.112,1.207-0.333,1.408c-0.224,0.202-0.583,0.303-1.076,0.303h-2.787c-1.47,0-2.517-0.359-3.149-1.076
						c-0.629-0.716-0.941-1.838-0.941-3.368V48.592z"></path>
					<path fill="#00C0F3" d="M90.867,70.406c-0.327,0.689-0.824,1.164-1.487,1.425c-0.663,0.261-1.559,0.392-2.681,0.392h-3.281
						c-0.468,0-0.821-0.112-1.056-0.339c-0.235-0.225-0.353-0.67-0.353-1.336c0-0.689,0.112-1.168,0.336-1.442
						c0.224-0.273,0.58-0.41,1.073-0.41h2.293c0.425,0,0.746-0.065,0.97-0.192c0.224-0.129,0.387-0.329,0.494-0.598
						c0.106-0.268,0.169-0.62,0.195-1.055c0.023-0.433,0.034-0.967,0.034-1.599v-7.313c0-0.141,0.063-0.234,0.192-0.281
						c0.129-0.047,0.261-0.07,0.402-0.07h3.008c0.232,0,0.347,0.118,0.347,0.352v8.579c0,0.703,0.264,1.241,0.795,1.616
						c0.528,0.376,1.24,0.563,2.133,0.563h0.6c0.471,0,0.824,0.131,1.059,0.392c0.232,0.261,0.353,0.702,0.353,1.319
						c0,0.689-0.112,1.164-0.336,1.425c-0.224,0.261-0.583,0.392-1.076,0.392c-0.916,0-1.716-0.112-2.4-0.339
						C91.803,71.659,91.263,71.167,90.867,70.406z M85.643,54.059c-0.235,0-0.353-0.118-0.353-0.356v-3.061
						c0-0.237,0.118-0.356,0.353-0.356h2.962c0.235,0,0.353,0.119,0.353,0.356v3.061c0,0.238-0.118,0.356-0.353,0.356H85.643z
						 M90.227,54.059c-0.235,0-0.353-0.118-0.353-0.356v-3.061c0-0.237,0.118-0.356,0.353-0.356h2.962c0.235,0,0.353,0.119,0.353,0.356
						v3.061c0,0.238-0.118,0.356-0.353,0.356H90.227z"></path>
					<path fill="#00C0F3" d="M96.645,68.696c0.588,0,1.016-0.133,1.289-0.403c0.27-0.271,0.405-0.758,0.405-1.462V48.592
						c0-0.235,0.115-0.353,0.35-0.353h3.249c0.232,0,0.35,0.118,0.35,0.353v17.92c0,0.705,0.264,1.244,0.795,1.62
						c0.528,0.376,1.24,0.563,2.133,0.563h0.6c0.471,0,0.824,0.131,1.059,0.392c0.232,0.261,0.353,0.702,0.353,1.319
						c0,0.689-0.112,1.164-0.336,1.425s-0.583,0.392-1.076,0.392c-0.916,0-1.716-0.112-2.4-0.339c-0.68-0.225-1.22-0.718-1.616-1.478
						c-0.327,0.664-0.801,1.134-1.418,1.408c-0.617,0.273-1.449,0.409-2.503,0.409h-2.962c-0.471,0-0.824-0.112-1.059-0.339
						c-0.232-0.225-0.353-0.718-0.353-1.478c0-0.642,0.112-1.086,0.336-1.336c0.224-0.248,0.583-0.375,1.076-0.375H96.645z"></path>
					<path fill="#00C0F3" d="M105.85,72.223c-0.471,0-0.824-0.112-1.059-0.339c-0.232-0.225-0.353-0.683-0.353-1.372
						c0-0.664,0.112-1.132,0.336-1.406c0.224-0.273,0.583-0.41,1.076-0.41h1.728c0.588,0,1.016-0.133,1.289-0.403
						c0.27-0.271,0.405-0.758,0.405-1.462V48.592c0-0.235,0.115-0.353,0.35-0.353h3.249c0.232,0,0.35,0.118,0.35,0.353v19.186
						c0,1.53-0.313,2.652-0.944,3.368c-0.629,0.718-1.676,1.076-3.146,1.076H105.85z"></path>
					<path fill="#00C0F3" d="M126.128,68.696c0.425,0,0.761-0.065,1.007-0.192c0.247-0.129,0.428-0.353,0.545-0.67
						c0.118-0.316,0.195-0.751,0.23-1.302c0.034-0.553,0.052-1.25,0.052-2.095V48.592c0-0.235,0.118-0.353,0.35-0.353h3.252
						c0.232,0,0.35,0.118,0.35,0.353l0.034,10.334c1.128-0.541,2.356-1.006,3.685-1.394c1.329-0.387,2.71-0.581,4.145-0.581
						c1.553,0,2.867,0.199,3.949,0.597c1.082,0.399,1.969,0.962,2.664,1.688c0.692,0.728,1.2,1.613,1.516,2.656
						c0.319,1.042,0.476,2.197,0.476,3.463c0,0.234-0.006,0.451-0.017,0.65c-0.011,0.199-0.017,0.369-0.017,0.509
						c0.046,0.703,0.321,1.243,0.829,1.617c0.505,0.376,1.203,0.563,2.098,0.563h0.563c0.471,0,0.824,0.131,1.059,0.392
						c0.235,0.261,0.353,0.702,0.353,1.319c0,0.689-0.112,1.164-0.336,1.425s-0.583,0.392-1.076,0.392c-1.01,0-1.886-0.148-2.626-0.445
						s-1.3-0.897-1.676-1.8c-0.258,0.499-0.571,0.897-0.936,1.194s-0.801,0.522-1.309,0.676c-0.505,0.155-1.082,0.255-1.731,0.303
						c-0.649,0.047-1.386,0.072-2.21,0.072h-9.403c-0.746,0-1.283-0.199-1.607-0.6c-0.399,0.283-0.858,0.453-1.381,0.512
						c-0.525,0.059-1.128,0.088-1.808,0.088h-2.115c-0.235,0-0.353-0.119-0.353-0.356v-2.816c0-0.237,0.118-0.356,0.353-0.356H126.128z
						 M139.199,60.478c-1.32,0-2.618,0.199-3.889,0.597c-1.274,0.399-2.405,0.832-3.396,1.3v4.776c0,0.281-0.014,0.55-0.037,0.808
						c-0.023,0.257-0.057,0.504-0.103,0.736h7.709c0.99,0,1.797-0.017,2.423-0.052c0.626-0.036,1.108-0.164,1.449-0.386
						c0.342-0.222,0.571-0.574,0.692-1.053c0.118-0.481,0.175-1.154,0.175-2.021c0-0.749-0.077-1.416-0.23-2.002
						c-0.152-0.584-0.425-1.076-0.812-1.474c-0.39-0.398-0.904-0.703-1.538-0.913C141.005,60.584,140.19,60.478,139.199,60.478z"></path>
					<path fill="#00C0F3" d="M161.363,56.952c2.4,0,4.234,0.568,5.502,1.705c1.272,1.137,1.906,2.655,1.906,4.554
						c0,1.15-0.264,2.199-0.795,3.147c-0.528,0.95-1.24,1.729-2.133,2.338h5.009c0.471,0,0.824,0.113,1.059,0.339
						c0.232,0.227,0.35,0.672,0.35,1.336c0,0.689-0.112,1.17-0.333,1.444c-0.224,0.273-0.583,0.409-1.076,0.409h-4.902
						c-0.847,0-1.648-0.036-2.4-0.106s-1.47-0.317-2.15-0.741c-0.778,0.423-1.604,0.67-2.489,0.741c-0.881,0.07-1.662,0.106-2.345,0.106
						h-4.69c-0.471,0-0.824-0.142-1.059-0.428c-0.232-0.286-0.353-0.748-0.353-1.389c0-0.689,0.112-1.145,0.336-1.372
						c0.224-0.225,0.583-0.339,1.076-0.339h4.974c-0.873-0.608-1.57-1.388-2.101-2.338c-0.528-0.949-0.792-1.998-0.792-3.147
						c0-1.899,0.634-3.417,1.906-4.554C157.133,57.52,158.967,56.952,161.363,56.952z M157.733,54.059c-0.235,0-0.353-0.118-0.353-0.356
						v-3.061c0-0.237,0.118-0.356,0.353-0.356h2.962c0.235,0,0.353,0.119,0.353,0.356v3.061c0,0.238-0.118,0.356-0.353,0.356H157.733z
						 M161.363,60.091c-0.916,0-1.708,0.288-2.379,0.864c-0.669,0.577-1.005,1.428-1.005,2.557c0,1.198,0.327,2.168,0.987,2.909
						c0.657,0.741,1.458,1.312,2.397,1.711c0.918-0.399,1.705-0.97,2.365-1.711c0.657-0.741,0.987-1.711,0.987-2.909
						c0-1.129-0.33-1.98-0.987-2.557C163.068,60.379,162.282,60.091,161.363,60.091z M162.316,54.059c-0.235,0-0.353-0.118-0.353-0.356
						v-3.061c0-0.237,0.118-0.356,0.353-0.356h2.962c0.235,0,0.353,0.119,0.353,0.356v3.061c0,0.238-0.118,0.356-0.353,0.356H162.316z"></path>
					<path fill="#00C0F3" d="M179.282,66.51c0,0.752,0.195,1.305,0.586,1.658c0.39,0.353,1.013,0.528,1.866,0.528
						c0.591,0,1.059-0.04,1.401-0.123c0.344-0.082,0.6-0.251,0.766-0.511c0.164-0.258,0.267-0.611,0.301-1.058
						c0.035-0.446,0.052-1.046,0.052-1.8V60.69c0-0.235,0.118-0.353,0.35-0.353h3.252c0.232,0,0.35,0.118,0.35,0.353v5.89
						c0,0.729,0.224,1.264,0.675,1.604c0.448,0.342,1.042,0.511,1.777,0.511c0.542,0,0.982-0.04,1.312-0.122
						c0.333-0.082,0.588-0.247,0.766-0.492c0.175-0.245,0.29-0.597,0.336-1.055c0.049-0.456,0.072-1.049,0.072-1.775v-7.313
						c0-0.234,0.118-0.352,0.35-0.352h3.252c0.232,0,0.347,0.118,0.347,0.352v8.579c0,0.703,0.264,1.241,0.795,1.616
						c0.528,0.376,1.24,0.563,2.133,0.563h0.6c0.471,0,0.824,0.131,1.059,0.392c0.235,0.261,0.353,0.702,0.353,1.319
						c0,0.689-0.118,1.164-0.353,1.425c-0.235,0.261-0.588,0.392-1.059,0.392c-0.916,0-1.711-0.112-2.379-0.339
						c-0.672-0.225-1.206-0.718-1.602-1.478c-0.33,0.664-0.807,1.134-1.429,1.408c-0.623,0.273-1.464,0.409-2.52,0.409h-1.518
						c-0.824,0-1.521-0.161-2.098-0.481c-0.577-0.321-1.016-0.778-1.323-1.372c-0.33,0.689-0.804,1.17-1.427,1.444
						c-0.626,0.273-1.464,0.409-2.523,0.409h-1.553c-1.668,0-2.81-0.63-3.421-1.889c-0.324,0.689-0.798,1.177-1.415,1.461
						c-0.617,0.286-1.452,0.428-2.503,0.428h-3.809c-0.258,0-0.494-0.011-0.706-0.036c-0.21-0.023-0.387-0.089-0.528-0.195
						c-0.141-0.108-0.247-0.268-0.319-0.482c-0.069-0.214-0.106-0.509-0.106-0.89c0-0.712,0.112-1.211,0.336-1.497
						c0.224-0.284,0.583-0.428,1.076-0.428h2.821c0.422,0,0.746-0.065,0.97-0.194c0.224-0.129,0.387-0.334,0.494-0.617
						c0.106-0.281,0.164-0.64,0.175-1.075c0.011-0.435,0.02-0.97,0.02-1.606V60.69c0-0.235,0.115-0.353,0.347-0.353h3.252
						c0.232,0,0.35,0.118,0.35,0.353V66.51z"></path>
					<path fill="#00C0F3" d="M211.472,72.47c-1.18,0-2.239-0.161-3.18-0.481c-0.941-0.32-1.731-0.85-2.368-1.586
						c-0.235,0.382-0.522,0.69-0.855,0.929c-0.33,0.238-0.674,0.422-1.028,0.553c-0.353,0.131-0.717,0.22-1.093,0.267
						c-0.376,0.047-0.729,0.072-1.059,0.072h-1.234c-0.471,0-0.824-0.136-1.059-0.409c-0.232-0.274-0.353-0.73-0.353-1.372
						c0-0.689,0.112-1.152,0.336-1.389c0.224-0.238,0.583-0.357,1.076-0.357h1.375c0.258,0,0.517-0.052,0.778-0.158
						c0.258-0.105,0.494-0.281,0.703-0.527c0.212-0.247,0.387-0.574,0.531-0.986c0.141-0.409,0.21-0.92,0.21-1.528
						c-0.023-0.188-0.034-0.363-0.034-0.528c0-0.164,0-0.34,0-0.527c0.023-1.36,0.218-2.514,0.583-3.464
						c0.367-0.949,0.873-1.722,1.521-2.321c0.649-0.597,1.409-1.03,2.279-1.302c0.873-0.268,1.828-0.403,2.865-0.403
						c1.039,0,2.003,0.141,2.899,0.423c0.896,0.281,1.668,0.729,2.316,1.339c0.649,0.613,1.154,1.424,1.521,2.434
						c0.365,1.012,0.548,2.234,0.548,3.668c0,1.388-0.178,2.563-0.531,3.528c-0.353,0.964-0.847,1.751-1.484,2.362
						c-0.634,0.611-1.401,1.059-2.296,1.34C213.542,72.329,212.554,72.47,211.472,72.47z M211.464,60.478
						c-1.122,0-1.952,0.363-2.491,1.089c-0.537,0.726-0.807,1.78-0.807,3.162c0,1.498,0.27,2.575,0.807,3.23
						c0.54,0.656,1.369,0.983,2.491,0.983c1.148,0,1.989-0.333,2.526-1c0.54-0.667,0.807-1.738,0.807-3.213
						C214.796,61.895,213.685,60.478,211.464,60.478z"></path>
				</g>
			</svg>
